<svg width="21" height="22" viewBox="0 0 21 22" fill="none" xmlns="http://www.w3.org/2000/svg">
<path d="M12.2262 0.629824L12.226 0.629741C12.0931 0.575175 11.9223 0.538969 11.6379 0.519763C11.3492 0.500265 10.9812 0.5 10.4576 0.5C9.93403 0.5 9.56627 0.500266 9.27773 0.519763C8.99389 0.538941 8.82286 0.575089 8.68913 0.629784C8.26954 0.801923 7.93565 1.1335 7.76077 1.55148L7.76021 1.55283C7.6934 1.7112 7.65573 1.92255 7.63966 2.32406C7.62958 2.70977 7.52159 3.0866 7.3258 3.41916C7.12932 3.7529 6.85093 4.031 6.51698 4.2272L6.50656 4.23332L6.50649 4.23319C6.16739 4.42156 5.78622 4.52133 5.3983 4.52329C5.01151 4.52525 4.63045 4.4299 4.29021 4.24604C3.93437 4.05894 3.72857 3.98516 3.55212 3.96181C3.09998 3.90257 2.64274 4.02406 2.27982 4.29982C2.16614 4.3863 2.04959 4.51426 1.89113 4.7482C1.73003 4.98602 1.54612 5.30163 1.28456 5.75137L1.28433 5.75177C1.02227 6.20141 0.838837 6.51703 0.711875 6.77411C0.586994 7.02697 0.533593 7.19091 0.514641 7.33183C0.455429 7.77713 0.577283 8.22827 0.854596 8.58614L0.85527 8.58701C0.961692 8.72498 1.12862 8.86375 1.47287 9.07889L1.20789 9.5029M12.2262 0.629824L3.61746 18.5339C3.88384 18.4987 4.15353 18.3909 4.52559 18.1951C4.79277 18.0501 5.09228 17.9749 5.39633 17.9764C5.70037 17.9779 5.9991 18.0562 6.2648 18.2039C6.79977 18.5119 7.11679 19.0784 7.13991 19.6922C7.15642 20.1102 7.19604 20.3962 7.29952 20.6415C7.52407 21.1805 7.95557 21.6095 8.49935 21.8328C8.90663 22 9.42399 22 10.4576 22C11.4912 22 12.0086 22 12.4159 21.8328C12.958 21.6104 13.3896 21.1819 13.6157 20.6415C13.7192 20.3962 13.7588 20.1102 13.7753 19.6922C13.7973 19.0784 14.1154 18.5108 14.6515 18.2039C14.9171 18.0564 15.2156 17.9782 15.5194 17.9767C15.8233 17.9752 16.1226 18.0503 16.3896 18.1951M12.2262 0.629824C12.4339 0.715004 12.6228 0.840246 12.7821 0.998376C12.9414 1.15651 13.0679 1.34442 13.1544 1.55139L13.155 1.55283C13.2218 1.71125 13.2595 1.92156 13.2756 2.32391C13.2855 2.70948 13.3933 3.08621 13.5888 3.41874C13.785 3.75246 14.0631 4.03064 14.3968 4.22702L14.3967 4.22715M12.2262 0.629824L14.3967 4.22715M1.20789 9.5029L1.47203 9.07837C2.12976 9.48761 2.56978 10.1976 2.56978 11C2.56978 11.802 2.1302 12.512 1.47345 12.9203C1.12896 13.1361 0.961358 13.2751 0.853455 13.4139C0.716847 13.5904 0.616589 13.7921 0.558451 14.0074C0.500343 14.2227 0.485461 14.4473 0.51466 14.6683C0.53363 14.8087 0.587057 14.9726 0.711919 15.2256C0.838878 15.4828 1.02236 15.7987 1.28433 16.2482C1.54654 16.6981 1.73047 17.0135 1.89158 17.2514C2.04989 17.4852 2.16636 17.6135 2.28045 17.7007C2.64143 17.9754 3.09881 18.097 3.55218 18.0382C3.7286 18.0148 3.93437 17.9411 4.29011 17.754C4.63051 17.5699 5.01181 17.4744 5.39885 17.4764C5.78704 17.4784 6.16847 17.5783 6.50774 17.7669L6.5143 17.7705L6.51427 17.7706C7.2096 18.1709 7.61036 18.9008 7.63954 19.6731M1.20789 9.5029C0.852339 9.2807 0.622279 9.1036 0.459366 8.8924L1.97732 18.0983C1.62867 17.8321 1.37175 17.3912 0.858512 16.5106L0.852339 16.5C0.33498 15.6123 0.0774008 15.1679 0.0190603 14.7345C-0.0189152 14.4478 0.000346621 14.1564 0.0757325 13.8771C0.151118 13.5979 0.281133 13.3363 0.458265 13.1076C0.622279 12.8964 0.852339 12.7193 1.20899 12.496C1.73295 12.1704 2.06978 11.6138 2.06978 11C2.06978 10.3862 1.73295 9.8296 1.20789 9.5029ZM7.63954 19.6731C7.63954 19.6732 7.63955 19.6733 7.63955 19.6734L7.14042 19.6922L7.63952 19.6725C7.63952 19.6727 7.63953 19.6729 7.63954 19.6731ZM7.63954 19.6731C7.65554 20.0774 7.69322 20.2884 7.76021 20.4472L7.76107 20.4492C7.93432 20.8651 8.26777 21.1972 8.68928 21.3703M8.68928 21.3703C8.68927 21.3703 8.68925 21.3703 8.68923 21.3703L8.50068 21.8296L8.68928 21.3703ZM8.68928 21.3703C8.82219 21.4248 8.99297 21.461 9.2773 21.4802C9.56599 21.4997 9.93403 21.5 10.4576 21.5C10.9812 21.5 11.3492 21.4997 11.6379 21.4802C11.9223 21.461 12.0931 21.4248 12.226 21.3703L12.2261 21.3702C12.6457 21.1981 12.9796 20.8665 13.1544 20.4485L13.155 20.4472C13.222 20.2884 13.2597 20.0775 13.2757 19.6734M13.2757 19.6734C13.2757 19.6737 13.2756 19.674 13.2756 19.6743L13.7751 19.6922L13.2757 19.6725C13.2757 19.6728 13.2757 19.6731 13.2757 19.6734ZM13.2757 19.6734C13.3037 18.9004 13.7061 18.169 14.4031 17.77L14.4087 17.7668L14.4087 17.7668C14.7478 17.5784 15.129 17.4787 15.5169 17.4767C15.9037 17.4748 16.2848 17.5701 16.6251 17.754M16.6251 17.754C16.6242 17.7535 16.6233 17.7531 16.6225 17.7526L16.3896 18.1951M16.6251 17.754C16.626 17.7545 16.627 17.755 16.628 17.7556L16.3896 18.1951M16.6251 17.754C16.981 17.9411 17.1868 18.0149 17.3633 18.0382M16.3896 18.1951C16.7617 18.3909 17.0314 18.4987 17.2978 18.5339M17.2978 18.5339L17.3632 18.0382C17.3632 18.0382 17.3632 18.0382 17.3633 18.0382M17.2978 18.5339L17.3633 18.0382M17.2978 18.5339L20.4006 14.6683C20.3816 14.8092 20.3282 14.9731 20.2033 15.2259C20.0764 15.483 19.8929 15.7986 19.6309 16.2482L19.6307 16.2486C19.3691 16.6984 19.1852 17.014 19.0241 17.2518C18.8656 17.4859 18.749 17.6138 18.6352 17.7003L18.635 17.7005C18.2733 17.9758 17.8157 18.0979 17.3633 18.0382M14.3967 4.22715L14.4075 4.23311M14.3967 4.22715L14.4075 4.23311M14.4075 4.23311C14.7468 4.42172 15.1282 4.52163 15.5164 4.52359C15.9034 4.52555 16.2847 4.43008 16.6251 4.24598L14.4075 4.23311ZM10.4576 14.8C12.5681 14.8 14.2852 13.1027 14.2852 11C14.2852 8.89716 12.5669 7.2 10.4576 7.2C8.3471 7.2 6.63 8.89727 6.63 11C6.63 13.1028 8.3483 14.8 10.4576 14.8Z" fill="#595959" stroke="#595959"/>
</svg>
